#N canvas 128 250 1170 492 12;
#X msg 31 48 10050 2000 2010 3080 2000 5000 1000 3050 9872;
#X text 773 53 Histogram avg.;
#X msg 437 22 Time extract.;
#X obj 35 142 unpack f f f f f f f f f, f 101;
#X text 24 74 first value = top left square etc...;
#X msg 778 28 150;
#X obj 739 176 del 50;
#X obj 651 179 del 100;
#X obj 563 179 del 150;
#X obj 475 180 del 200;
#X obj 388 180 del 250;
#X obj 299 184 del 300;
#X obj 211 184 del 350;
#X obj 123 187 del 400;
#X obj 34 187 del 450;
#X text 793 170 delay between each section \, so it becomes a natural
arpeggio!;
#X obj 34 257 soundgen;
#X text 432 53 Textures;
#X text 26 22 spoof message from Python:;
#X text 25 95 High values are COLD. low are HOT;
#X connect 3 0 14 0;
#X connect 3 1 13 0;
#X connect 3 2 12 0;
#X connect 3 3 11 0;
#X connect 3 4 10 0;
#X connect 3 5 9 0;
#X connect 3 6 8 0;
#X connect 3 7 7 0;
#X connect 3 8 6 0;
#X connect 14 0 16 0;
