#N canvas 123 28 1043 722 12;
#X msg 55 286 set \$1;
#X msg 55 309 1;
#X msg 193 315 set \$1;
#X msg 193 338 0;
#X msg 332 344 set \$1;
#X msg 332 367 0;
#X text 501 174 8000 - upwards Clear blue sky;
#X text 502 145 5000 - 8000 mid-day sun / cloudy sky;
#X text 502 115 3500 - 5000 Morning evning / moonlight;
#X text 502 85 2000 - 3500 Sunrise / sunset;
#X text 504 59 0 - 2000 Candle flame;
#X obj 55 233 t f f f f f, f 80;
#X obj 55 261 expr if($f1 < 2000 \, 1 \, 0);
#X obj 193 292 expr if($f1 > 2000 && $f1 < 3500 \, 1 \, 0 );
#X obj 332 321 expr if($f1 > 3500 && $f1 < 5000 \, 1 \, 0 );
#X msg 472 370 set \$1;
#X msg 472 393 0;
#X obj 472 347 expr if($f1 > 5000 && $f1 < 8000 \, 1 \, 0 );
#X msg 614 401 set \$1;
#X msg 614 424 0;
#X obj 614 378 expr if($f1 > 8000 \, 1 \, 0 );
#X obj 83 194 hsl 300 15 0 10000 0 0 empty empty empty -2 -8 0 10 -262144
-1 -1 4300 1;
#X text 85 176 0 - 10000;
#X obj 51 493 sel 1;
#X obj 55 64 inlet;
#X obj 193 478 sel 1;
#X obj 327 477 sel 1;
#X obj 473 480 sel 1;
#X obj 610 479 sel 1;
#X obj -23 547 osc~ 440;
#X obj 189 423 osc~ 660;
#X obj 320 424 osc~ 880;
#X obj -23 586 *~, f 11;
#X obj 51 556 vline~;
#X obj -23 610 *~ 0.5;
#X obj -27 639 dac~;
#X msg 52 526 1 300 \, 0 0 1000;
#X connect 0 0 1 0;
#X connect 1 0 23 0;
#X connect 2 0 3 0;
#X connect 4 0 5 0;
#X connect 11 0 12 0;
#X connect 11 1 13 0;
#X connect 11 2 14 0;
#X connect 11 3 17 0;
#X connect 11 4 20 0;
#X connect 12 0 0 0;
#X connect 13 0 2 0;
#X connect 14 0 4 0;
#X connect 15 0 16 0;
#X connect 17 0 15 0;
#X connect 18 0 19 0;
#X connect 20 0 18 0;
#X connect 21 0 11 0;
#X connect 23 0 36 0;
#X connect 24 0 11 0;
#X connect 29 0 32 0;
#X connect 32 0 34 0;
#X connect 33 0 32 1;
#X connect 34 0 35 0;
#X connect 34 0 35 1;
#X connect 36 0 33 0;
