#N canvas 215 82 1043 582 12;
#X msg 55 293 set \$1;
#X msg 55 316 1;
#X msg 193 322 set \$1;
#X msg 193 345 0;
#X msg 332 351 set \$1;
#X msg 332 374 0;
#X text 667 306 8000 - upwards Clear blue sky;
#X text 668 277 5000 - 8000 mid-day sun / cloudy sky;
#X text 668 253 3500 - 5000 Morning evning / moonlight;
#X text 668 223 2000 - 3500 Sunrise / sunset;
#X text 670 197 0 - 2000 Candle flame;
#X obj 55 233 t f f f f f, f 80;
#X obj 55 268 expr if($f1 < 2000 \, 1 \, 0);
#X obj 193 299 expr if($f1 > 2000 && $f1 < 3500 \, 1 \, 0 );
#X obj 332 328 expr if($f1 > 3500 && $f1 < 5000 \, 1 \, 0 );
#X msg 468 381 set \$1;
#X msg 468 404 0;
#X obj 468 358 expr if($f1 > 5000 && $f1 < 8000 \, 1 \, 0 );
#X msg 614 422 set \$1;
#X msg 614 445 0;
#X obj 614 399 expr if($f1 > 8000 \, 1 \, 0 );
#X obj 83 194 hsl 300 15 0 10000 0 0 empty empty empty -2 -8 0 10 -262144
-1 -1 0 1;
#X text 85 176 0 - 10000;
#X obj 247 377 sel 1;
#X obj 55 64 inlet;
#X connect 0 0 1 0;
#X connect 2 0 3 0;
#X connect 4 0 5 0;
#X connect 11 0 12 0;
#X connect 11 1 13 0;
#X connect 11 2 14 0;
#X connect 11 3 17 0;
#X connect 11 4 20 0;
#X connect 12 0 0 0;
#X connect 13 0 2 0;
#X connect 14 0 4 0;
#X connect 15 0 16 0;
#X connect 17 0 15 0;
#X connect 18 0 19 0;
#X connect 20 0 18 0;
#X connect 21 0 11 0;
#X connect 24 0 11 0;
