#N canvas 165 89 1038 682 12;
#X msg 31 23 10050 2000 2010 3080 2000 5000 1000 3050 9872;
#X text 441 50 Histogram avg.;
#X msg 590 24 Time extract.;
#X obj 60 206 unpack f f f f f f f f f, f 101;
#X text 197 435 pitch?;
#X msg 60 326 set \$1;
#X msg 60 349 0;
#X msg 198 355 set \$1;
#X msg 198 378 0;
#X text 25 74 Color temp. High values are COLD. low are HOT;
#X text 24 49 first value = top left square etc...;
#X msg 446 25 150;
#X msg 337 384 set \$1;
#X msg 337 407 0;
#X text 53 630 8000 - upwards Clear blue sky;
#X text 54 601 5000 - 8000 mid-day sun / cloudy sky;
#X text 54 572 3500 - 5000 Morning evning / moonlight;
#X text 53 542 2000 - 3500 Sunrise / sunset;
#X text 54 516 0 - 2000 Candle flame;
#X obj 60 266 t f f f f f, f 80;
#X obj 60 301 expr if($f1 < 2000 \, 1 \, 0);
#X obj 198 332 expr if($f1 > 2000 && $f1 < 3500 \, 1 \, 0 );
#X obj 337 361 expr if($f1 > 3500 && $f1 < 5000 \, 1 \, 0 );
#X msg 473 414 set \$1;
#X msg 473 437 1;
#X obj 473 391 expr if($f1 > 5000 && $f1 < 8000 \, 1 \, 0 );
#X msg 619 455 set \$1;
#X msg 619 478 0;
#X obj 619 432 expr if($f1 > 8000 \, 1 \, 0 );
#X obj 140 169 hsl 128 15 0 10000 0 0 empty empty empty -2 -8 0 10
-262144 -1 -1 7700 1;
#X text 142 151 0 - 10000;
#X connect 3 0 19 0;
#X connect 5 0 6 0;
#X connect 7 0 8 0;
#X connect 12 0 13 0;
#X connect 19 0 20 0;
#X connect 19 1 21 0;
#X connect 19 2 22 0;
#X connect 19 3 25 0;
#X connect 19 4 28 0;
#X connect 20 0 5 0;
#X connect 21 0 7 0;
#X connect 22 0 12 0;
#X connect 23 0 24 0;
#X connect 25 0 23 0;
#X connect 26 0 27 0;
#X connect 28 0 26 0;
#X connect 29 0 19 0;
